<svg aria-hidden="true" style="position: absolute; width: 0; height: 0; overflow: hidden;" version="1.1" xmlns="http://www.w3.org/2000/svg" xmlns:xlink="http://www.w3.org/1999/xlink">
<defs>
<symbol id="icon-Five_second_tests" viewBox="0 0 32 32">
<path fill="#4dadf7" style="fill: var(--color1, #4dadf7)" opacity="0.848005" d="M8 16h16c4.418 0 8 3.582 8 8s-3.582 8-8 8h-16c-4.418 0-8-3.582-8-8s3.582-8 8-8z"></path>
<path fill="#4dadf7" style="fill: var(--color1, #4dadf7)" d="M12.16 0h7.68c6.716 0 12.16 5.444 12.16 12.16v7.68c0 6.716-5.444 12.16-12.16 12.16h-7.68c-6.716 0-12.16-5.444-12.16-12.16v-7.68c0-6.716 5.444-12.16 12.16-12.16z"></path>
<path fill="#fff" style="fill: var(--color2, #fff)" d="M19.566 12.434h0.549c0.103 0 0.183-0.080 0.183-0.183v-0.366c0-0.103-0.080-0.183-0.183-0.183h-8.411c-0.103 0-0.183 0.080-0.183 0.183v0.366c0 0.103 0.080 0.183 0.183 0.183h0.549c0 2.114 1.011 3.646 2.131 4.389-1.12 0.743-2.131 2.274-2.131 4.389h-0.549c-0.103 0-0.183 0.080-0.183 0.183v0.366c0 0.103 0.080 0.183 0.183 0.183h8.411c0.103 0 0.183-0.080 0.183-0.183v-0.366c0-0.103-0.080-0.183-0.183-0.183h-0.549c0-2.114-1.011-3.646-2.131-4.389 1.12-0.743 2.131-2.274 2.131-4.389zM18.834 12.434c0 0.834-0.189 1.571-0.486 2.194h-4.88c-0.297-0.623-0.486-1.36-0.486-2.194h5.851zM18.509 19.383h-5.2c0.423-1.103 1.183-1.886 1.943-2.194h1.314c0.76 0.309 1.52 1.091 1.943 2.194z"></path>
</symbol>
<symbol id="icon-check" viewBox="0 0 32 32">
<path fill="#f90" style="fill: var(--color3, #f90)" d="M12.667 1.333h6.667c6.259 0 11.333 5.074 11.333 11.333v6.667c0 6.259-5.074 11.333-11.333 11.333h-6.667c-6.259 0-11.333-5.074-11.333-11.333v-6.667c0-6.259 5.074-11.333 11.333-11.333z"></path>
<path fill="none" stroke="#fff" style="stroke: var(--color2, #fff)" stroke-linejoin="miter" stroke-linecap="butt" stroke-miterlimit="4" stroke-width="2.6667" d="M12.667 1.333h6.667c6.259 0 11.333 5.074 11.333 11.333v6.667c0 6.259-5.074 11.333-11.333 11.333h-6.667c-6.259 0-11.333-5.074-11.333-11.333v-6.667c0-6.259 5.074-11.333 11.333-11.333z"></path>
<path fill="none" stroke="#f90" style="stroke: var(--color3, #f90)" stroke-linejoin="miter" stroke-linecap="butt" stroke-miterlimit="4" stroke-width="2.6667" d="M12.667 1.333h6.667c6.259 0 11.333 5.074 11.333 11.333v6.667c0 6.259-5.074 11.333-11.333 11.333h-6.667c-6.259 0-11.333-5.074-11.333-11.333v-6.667c0-6.259 5.074-11.333 11.333-11.333z"></path>
<path fill="#fff" style="fill: var(--color2, #fff)" d="M23.557 11.19c-0.286-0.292-0.749-0.292-1.034 0l-8.763 8.949-3.368-3.44c-0.286-0.292-0.749-0.292-1.034 0s-0.286 0.765 0 1.056l3.886 3.968c0.286 0.292 0.749 0.291 1.034 0l9.28-9.478c0.286-0.292 0.286-0.765 0-1.056z"></path>
</symbol>
<symbol id="icon-Preference_tests" viewBox="0 0 32 32">
<path fill="#f03e3d" style="fill: var(--color4, #f03e3d)" opacity="0.848005" d="M8 16h16c4.418 0 8 3.582 8 8s-3.582 8-8 8h-16c-4.418 0-8-3.582-8-8s3.582-8 8-8z"></path>
<path fill="#f03e3d" style="fill: var(--color4, #f03e3d)" d="M12.16 0h7.68c6.716 0 12.16 5.444 12.16 12.16v7.68c0 6.716-5.444 12.16-12.16 12.16h-7.68c-6.716 0-12.16-5.444-12.16-12.16v-7.68c0-6.716 5.444-12.16 12.16-12.16z"></path>
<path fill="#fff" style="fill: var(--color2, #fff)" d="M16 21.211c0.091 0 0.183-0.034 0.251-0.103l3.56-3.429c0.051-0.051 1.309-1.2 1.309-2.571 0-1.674-1.023-2.674-2.731-2.674-1 0-1.937 0.789-2.389 1.234-0.451-0.446-1.389-1.234-2.389-1.234-1.709 0-2.731 1-2.731 2.674 0 1.371 1.257 2.52 1.303 2.56l3.566 3.44c0.069 0.069 0.16 0.103 0.251 0.103z"></path>
</symbol>
<symbol id="icon-Design_surveys" viewBox="0 0 32 32">
<path fill="#fab005" style="fill: var(--color5, #fab005)" opacity="0.848005" d="M8 16h16c4.418 0 8 3.582 8 8s-3.582 8-8 8h-16c-4.418 0-8-3.582-8-8s3.582-8 8-8z"></path>
<path fill="#fab005" style="fill: var(--color5, #fab005)" d="M12.16 0h7.68c6.716 0 12.16 5.444 12.16 12.16v7.68c0 6.716-5.444 12.16-12.16 12.16h-7.68c-6.716 0-12.16-5.444-12.16-12.16v-7.68c0-6.716 5.444-12.16 12.16-12.16z"></path>
<path fill="#fff" style="fill: var(--color2, #fff)" d="M16.309 15.771l0.749 0.349 1.114-0.331v-0.777c0-1.32-1.114-2.377-2.446-2.377-1.326 0-2.446 1.051-2.446 2.36v3.543c0 0.326-0.263 0.583-0.583 0.583s-0.583-0.257-0.583-0.583v-1.497h-1.874c0 1.503 0 1.52 0 1.52 0 1.354 1.097 2.451 2.451 2.451 1.343 0 2.451-1.080 2.451-2.417v-3.497c0-0.32 0.263-0.583 0.583-0.583s0.583 0.263 0.583 0.583v0.674zM19.337 17.040v1.571c0 0.32-0.263 0.577-0.583 0.577s-0.583-0.257-0.583-0.577v-1.543l-1.114 0.331-0.749-0.349v1.531c0 1.343 1.103 2.429 2.451 2.429 1.354 0 2.451-1.097 2.451-2.451 0 0 0-0.017 0-1.52h-1.874z"></path>
</symbol>
<symbol id="icon-First_click_tests" viewBox="0 0 33 32">
<path fill="#7752be" style="fill: var(--color6, #7752be)" opacity="0.848005" d="M8.32 16h16c4.418 0 8 3.582 8 8s-3.582 8-8 8h-16c-4.418 0-8-3.582-8-8s3.582-8 8-8z"></path>
<path fill="#7752be" style="fill: var(--color6, #7752be)" d="M12.16 0h7.68c6.716 0 12.16 5.444 12.16 12.16v7.68c0 6.716-5.444 12.16-12.16 12.16h-7.68c-6.716 0-12.16-5.444-12.16-12.16v-7.68c0-6.716 5.444-12.16 12.16-12.16z"></path>
<path fill="#fff" style="fill: var(--color2, #fff)" d="M18.634 17.663l-5.851-5.851c-0.069-0.074-0.16-0.109-0.257-0.109-0.046 0-0.097 0.011-0.137 0.029-0.137 0.057-0.229 0.189-0.229 0.337v8.594c0 0.149 0.091 0.28 0.229 0.337 0.040 0.017 0.091 0.029 0.137 0.029 0.097 0 0.189-0.040 0.257-0.109l1.783-1.783 1.091 2.583c0.080 0.183 0.291 0.274 0.48 0.194l1.011-0.429c0.183-0.080 0.274-0.291 0.194-0.48l-1.149-2.72h2.183c0.149 0 0.28-0.091 0.337-0.229 0.057-0.131 0.029-0.291-0.080-0.394z"></path>
</symbol>
<symbol id="icon-Triangle" viewBox="0 0 29 32">
<path fill="#f90" style="fill: var(--color3, #f90)" d="M26.697 14.367c1.245 0.733 1.245 2.534 0 3.266l-23 13.529c-1.263 0.743-2.855-0.168-2.855-1.633v-27.059c0-1.465 1.592-2.376 2.855-1.633l23 13.529z"></path>
</symbol>
</defs>
</svg>
